<svg xmlns="http://www.w3.org/2000/svg" xmlns:xlink="http://www.w3.org/1999/xlink" contentStyleType="text/css" data-diagram-type="CLASS" height="581px" preserveAspectRatio="none" style="width:398px;height:581px;background:#FFFFFF;" version="1.1" viewBox="0 0 398 581" width="398px" zoomAndPan="magnify"><defs/><g><!--class Subject--><g class="entity" data-entity="Subject" data-source-line="1" data-uid="ent0002" id="entity_Subject"><rect fill="#F1F1F1" height="96.8906" rx="2.5" ry="2.5" style="stroke:#181818;stroke-width:0.5;" width="154.6182" x="122" y="7"/><ellipse cx="168.8911" cy="23" fill="#B4A7E5" rx="11" ry="11" style="stroke:#181818;stroke-width:1;"/><path d="M164.813,18.7656 L164.813,16.6094 L172.2036,16.6094 L172.2036,18.7656 L169.7349,18.7656 L169.7349,26.8438 L172.2036,26.8438 L172.2036,29 L164.813,29 L164.813,26.8438 L167.2817,26.8438 L167.2817,18.7656 L164.813,18.7656 Z " fill="#000000"/><text fill="#000000" font-family="sans-serif" font-size="14" font-style="italic" lengthAdjust="spacing" textLength="52.3359" x="189.3911" y="27.8467">Subject</text><line style="stroke:#181818;stroke-width:0.5;" x1="123" x2="275.6182" y1="39" y2="39"/><line style="stroke:#181818;stroke-width:0.5;" x1="123" x2="275.6182" y1="47" y2="47"/><ellipse cx="133" cy="60.6484" fill="#84BE84" rx="3" ry="3" style="stroke:#038048;stroke-width:1;"/><text fill="#000000" font-family="sans-serif" font-size="14" lengthAdjust="spacing" textLength="101.5" x="142" y="63.9951">addObserver()</text><ellipse cx="133" cy="76.9453" fill="#84BE84" rx="3" ry="3" style="stroke:#038048;stroke-width:1;"/><text fill="#000000" font-family="sans-serif" font-size="14" lengthAdjust="spacing" textLength="128.6182" x="142" y="80.292">removeObserver()</text><ellipse cx="133" cy="93.2422" fill="#84BE84" rx="3" ry="3" style="stroke:#038048;stroke-width:1;"/><text fill="#000000" font-family="sans-serif" font-size="14" lengthAdjust="spacing" textLength="122.4727" x="142" y="96.5889">notifyObservers()</text></g><!--class Observer--><g class="entity" data-entity="Observer" data-source-line="6" data-uid="ent0003" id="entity_Observer"><rect fill="#F1F1F1" height="64.2969" rx="2.5" ry="2.5" style="stroke:#181818;stroke-width:0.5;" width="174.5586" x="112" y="370"/><ellipse cx="162.9175" cy="386" fill="#B4A7E5" rx="11" ry="11" style="stroke:#181818;stroke-width:1;"/><path d="M158.8394,381.7656 L158.8394,379.6094 L166.23,379.6094 L166.23,381.7656 L163.7612,381.7656 L163.7612,389.8438 L166.23,389.8438 L166.23,392 L158.8394,392 L158.8394,389.8438 L161.3081,389.8438 L161.3081,381.7656 L158.8394,381.7656 Z " fill="#000000"/><text fill="#000000" font-family="sans-serif" font-size="14" font-style="italic" lengthAdjust="spacing" textLength="64.2236" x="183.4175" y="390.8467">Observer</text><line style="stroke:#181818;stroke-width:0.5;" x1="113" x2="285.5586" y1="402" y2="402"/><line style="stroke:#181818;stroke-width:0.5;" x1="113" x2="285.5586" y1="410" y2="410"/><ellipse cx="123" cy="423.6484" fill="#84BE84" rx="3" ry="3" style="stroke:#038048;stroke-width:1;"/><text fill="#000000" font-family="sans-serif" font-size="14" lengthAdjust="spacing" textLength="148.5586" x="132" y="426.9951">update(temperature)</text></g><!--class WeatherStation--><g class="entity" data-entity="WeatherStation" data-source-line="9" data-uid="ent0004" id="entity_WeatherStation"><rect fill="#F1F1F1" height="145.7813" rx="2.5" ry="2.5" style="stroke:#181818;stroke-width:0.5;" width="154.9258" x="122" y="164"/><ellipse cx="143.024" cy="180" fill="#ADD1B2" rx="11" ry="11" style="stroke:#181818;stroke-width:1;"/><path d="M145.9928,185.6406 Q145.4146,185.9375 144.774,186.0781 Q144.1334,186.2344 143.4303,186.2344 Q140.9303,186.2344 139.6021,184.5938 Q138.2896,182.9375 138.2896,179.8125 Q138.2896,176.6875 139.6021,175.0313 Q140.9303,173.375 143.4303,173.375 Q144.1334,173.375 144.774,173.5313 Q145.4303,173.6875 145.9928,173.9844 L145.9928,176.7031 Q145.3678,176.125 144.774,175.8594 Q144.1803,175.5781 143.5553,175.5781 Q142.2115,175.5781 141.524,176.6563 Q140.8365,177.7188 140.8365,179.8125 Q140.8365,181.9063 141.524,182.9844 Q142.2115,184.0469 143.5553,184.0469 Q144.1803,184.0469 144.774,183.7813 Q145.3678,183.5 145.9928,182.9219 L145.9928,185.6406 Z " fill="#000000"/><text fill="#000000" font-family="sans-serif" font-size="14" lengthAdjust="spacing" textLength="109.5391" x="158.3627" y="184.8467">WeatherStation</text><line style="stroke:#181818;stroke-width:0.5;" x1="123" x2="275.9258" y1="196" y2="196"/><rect fill="none" height="6" style="stroke:#C82930;stroke-width:1;" width="6" x="130" y="206.6484"/><text fill="#000000" font-family="sans-serif" font-size="14" lengthAdjust="spacing" textLength="102.7031" x="142" y="212.9951">observers: List</text><rect fill="none" height="6" style="stroke:#C82930;stroke-width:1;" width="6" x="130" y="222.9453"/><text fill="#000000" font-family="sans-serif" font-size="14" lengthAdjust="spacing" textLength="128.9258" x="142" y="229.292">temperature: float</text><line style="stroke:#181818;stroke-width:0.5;" x1="123" x2="275.9258" y1="236.5938" y2="236.5938"/><ellipse cx="133" cy="250.2422" fill="#84BE84" rx="3" ry="3" style="stroke:#038048;stroke-width:1;"/><text fill="#000000" font-family="sans-serif" font-size="14" lengthAdjust="spacing" textLength="101.5" x="142" y="253.5889">addObserver()</text><ellipse cx="133" cy="266.5391" fill="#84BE84" rx="3" ry="3" style="stroke:#038048;stroke-width:1;"/><text fill="#000000" font-family="sans-serif" font-size="14" lengthAdjust="spacing" textLength="128.6182" x="142" y="269.8857">removeObserver()</text><ellipse cx="133" cy="282.8359" fill="#84BE84" rx="3" ry="3" style="stroke:#038048;stroke-width:1;"/><text fill="#000000" font-family="sans-serif" font-size="14" lengthAdjust="spacing" textLength="122.4727" x="142" y="286.1826">notifyObservers()</text><ellipse cx="133" cy="299.1328" fill="#84BE84" rx="3" ry="3" style="stroke:#038048;stroke-width:1;"/><text fill="#000000" font-family="sans-serif" font-size="14" lengthAdjust="spacing" textLength="123.6895" x="142" y="302.4795">setTemperature()</text></g><!--class PhoneDisplay--><g class="entity" data-entity="PhoneDisplay" data-source-line="17" data-uid="ent0005" id="entity_PhoneDisplay"><rect fill="#F1F1F1" height="80.5938" rx="2.5" ry="2.5" style="stroke:#181818;stroke-width:0.5;" width="174.5586" x="7" y="494"/><ellipse cx="43.4141" cy="510" fill="#ADD1B2" rx="11" ry="11" style="stroke:#181818;stroke-width:1;"/><path d="M46.3829,515.6406 Q45.8047,515.9375 45.1641,516.0781 Q44.5235,516.2344 43.8204,516.2344 Q41.3204,516.2344 39.9922,514.5938 Q38.6797,512.9375 38.6797,509.8125 Q38.6797,506.6875 39.9922,505.0313 Q41.3204,503.375 43.8204,503.375 Q44.5235,503.375 45.1641,503.5313 Q45.8204,503.6875 46.3829,503.9844 L46.3829,506.7031 Q45.7579,506.125 45.1641,505.8594 Q44.5704,505.5781 43.9454,505.5781 Q42.6016,505.5781 41.9141,506.6563 Q41.2266,507.7188 41.2266,509.8125 Q41.2266,511.9063 41.9141,512.9844 Q42.6016,514.0469 43.9454,514.0469 Q44.5704,514.0469 45.1641,513.7813 Q45.7579,513.5 46.3829,512.9219 L46.3829,515.6406 Z " fill="#000000"/><text fill="#000000" font-family="sans-serif" font-size="14" lengthAdjust="spacing" textLength="94.9717" x="62.1728" y="514.8467">PhoneDisplay</text><line style="stroke:#181818;stroke-width:0.5;" x1="8" x2="180.5586" y1="526" y2="526"/><rect fill="none" height="6" style="stroke:#C82930;stroke-width:1;" width="6" x="15" y="536.6484"/><text fill="#000000" font-family="sans-serif" font-size="14" lengthAdjust="spacing" textLength="90.6514" x="27" y="542.9951">name: String</text><line style="stroke:#181818;stroke-width:0.5;" x1="8" x2="180.5586" y1="550.2969" y2="550.2969"/><ellipse cx="18" cy="563.9453" fill="#84BE84" rx="3" ry="3" style="stroke:#038048;stroke-width:1;"/><text fill="#000000" font-family="sans-serif" font-size="14" lengthAdjust="spacing" textLength="148.5586" x="27" y="567.292">update(temperature)</text></g><!--class TVDisplay--><g class="entity" data-entity="TVDisplay" data-source-line="21" data-uid="ent0006" id="entity_TVDisplay"><rect fill="#F1F1F1" height="80.5938" rx="2.5" ry="2.5" style="stroke:#181818;stroke-width:0.5;" width="174.5586" x="217" y="494"/><ellipse cx="265.1626" cy="510" fill="#ADD1B2" rx="11" ry="11" style="stroke:#181818;stroke-width:1;"/><path d="M268.1313,515.6406 Q267.5532,515.9375 266.9126,516.0781 Q266.272,516.2344 265.5688,516.2344 Q263.0688,516.2344 261.7407,514.5938 Q260.4282,512.9375 260.4282,509.8125 Q260.4282,506.6875 261.7407,505.0313 Q263.0688,503.375 265.5688,503.375 Q266.272,503.375 266.9126,503.5313 Q267.5688,503.6875 268.1313,503.9844 L268.1313,506.7031 Q267.5063,506.125 266.9126,505.8594 Q266.3188,505.5781 265.6938,505.5781 Q264.3501,505.5781 263.6626,506.6563 Q262.9751,507.7188 262.9751,509.8125 Q262.9751,511.9063 263.6626,512.9844 Q264.3501,514.0469 265.6938,514.0469 Q266.3188,514.0469 266.9126,513.7813 Q267.5063,513.5 268.1313,512.9219 L268.1313,515.6406 Z " fill="#000000"/><text fill="#000000" font-family="sans-serif" font-size="14" lengthAdjust="spacing" textLength="69.7334" x="285.6626" y="514.8467">TVDisplay</text><line style="stroke:#181818;stroke-width:0.5;" x1="218" x2="390.5586" y1="526" y2="526"/><rect fill="none" height="6" style="stroke:#C82930;stroke-width:1;" width="6" x="225" y="536.6484"/><text fill="#000000" font-family="sans-serif" font-size="14" lengthAdjust="spacing" textLength="90.6514" x="237" y="542.9951">name: String</text><line style="stroke:#181818;stroke-width:0.5;" x1="218" x2="390.5586" y1="550.2969" y2="550.2969"/><ellipse cx="228" cy="563.9453" fill="#84BE84" rx="3" ry="3" style="stroke:#038048;stroke-width:1;"/><text fill="#000000" font-family="sans-serif" font-size="14" lengthAdjust="spacing" textLength="148.5586" x="237" y="567.292">update(temperature)</text></g><!--reverse link Subject to WeatherStation--><g class="link" data-entity-1="Subject" data-entity-2="WeatherStation" data-source-line="25" data-uid="lnk7" id="link_Subject_WeatherStation"><path codeLine="25" d="M199.5,122.13 C199.5,140.41 199.5,143.71 199.5,163.78" fill="none" id="Subject-backto-WeatherStation" style="stroke:#181818;stroke-width:1;stroke-dasharray:7.0,7.0;"/><polygon fill="none" points="199.5,104.13,193.5,122.13,205.5,122.13,199.5,104.13" style="stroke:#181818;stroke-width:1;"/></g><!--reverse link Observer to PhoneDisplay--><g class="link" data-entity-1="Observer" data-entity-2="PhoneDisplay" data-source-line="26" data-uid="lnk8" id="link_Observer_PhoneDisplay"><path codeLine="26" d="M163.0632,448.2817 C148.7432,466.0717 141.95,474.53 126.61,493.59" fill="none" id="Observer-backto-PhoneDisplay" style="stroke:#181818;stroke-width:1;stroke-dasharray:7.0,7.0;"/><polygon fill="none" points="174.35,434.26,158.3893,444.5195,167.7372,452.044,174.35,434.26" style="stroke:#181818;stroke-width:1;"/></g><!--reverse link Observer to TVDisplay--><g class="link" data-entity-1="Observer" data-entity-2="TVDisplay" data-source-line="27" data-uid="lnk9" id="link_Observer_TVDisplay"><path codeLine="27" d="M235.9368,448.2817 C250.2568,466.0717 257.05,474.53 272.39,493.59" fill="none" id="Observer-backto-TVDisplay" style="stroke:#181818;stroke-width:1;stroke-dasharray:7.0,7.0;"/><polygon fill="none" points="224.65,434.26,231.2628,452.044,240.6107,444.5195,224.65,434.26" style="stroke:#181818;stroke-width:1;"/></g><!--link WeatherStation to Observer--><g class="link" data-entity-1="WeatherStation" data-entity-2="Observer" data-source-line="28" data-uid="lnk10" id="link_WeatherStation_Observer"><path codeLine="28" d="M199.5,322.44 C199.5,343.19 199.5,346.73 199.5,363.59" fill="none" id="WeatherStation-Observer" style="stroke:#181818;stroke-width:1;"/><polygon fill="none" points="199.5,310.44,195.5,316.44,199.5,322.44,203.5,316.44,199.5,310.44" style="stroke:#181818;stroke-width:1;"/><polygon fill="#181818" points="199.5,369.59,203.5,360.59,199.5,364.59,195.5,360.59,199.5,369.59" style="stroke:#181818;stroke-width:1;"/><text fill="#000000" font-family="sans-serif" font-size="13" lengthAdjust="spacing" textLength="36.5625" x="160.1644" y="359.0334">many</text></g><!--SRC=[fP713e8m38RlUuh54yR00n3ZoQE99X0z5oWompQo5HAYlhi83WWN4ztnw_w_VrkX24qEAVAeJcwO4hypthqDPDaniMWQDDvwG0QbRd19bIQHjuxQ3Z-P65qTTxPrbG6XHoWhD42rmVV_j0Hh-GM12ZGH0GcjFWfVE-UG7uIb0Sxq8SzB3VHtwXvRf7YozgPifq8ht0jRbT2wP0farpqY8zJr-tJn-KUvEyps4GIB7R5nlNrn7d9H6hkpnPQrx-_uIe9gL-EnNW00]--></g></svg>